<svg id="Layer_1_1_" enable-background="new 0 0 64 64" height="512" viewBox="0 0 64 64" width="512" xmlns="http://www.w3.org/2000/svg"><path d="m51.141 57c-.083.321-.141.653-.141 1 0 2.209 1.791 4 4 4s4-1.791 4-4c0-.347-.058-.679-.141-1h-3.859z" fill="#2e2e2e"/><path d="m16 58c0 2.209 1.791 4 4 4s4-1.791 4-4c0-.347-.058-.679-.141-1h-7.717c-.084.321-.142.653-.142 1z" fill="#2e2e2e"/><circle cx="55" cy="58" fill="#bfbfbf" r="1"/><circle cx="20" cy="58" fill="#bfbfbf" r="1"/><path d="m61 31h-3c-1.657 0-3-1.343-3-3 0-1.657 1.343-3 3-3h3z" fill="#e3e3e3"/><path d="m55.184 27c-.112.314-.184.647-.184 1 0 1.657 1.343 3 3 3h3v-2h-3c-1.304 0-2.403-.837-2.816-2z" fill="#c9c9c9"/><path d="m58 26h4v-2h-4c-.772 0-1.468.3-2 .779v-.749c0-.569-.448-1.03-1-1.03s-1 .461-1 1.03v29.97h-14v3h22v-10c0-3.314-2.686-6-6-6v-14.218c.529-.482 1.226-.782 2-.782z" fill="#f35142"/><circle cx="35" cy="12" fill="#fee6d5" r="8"/><path d="m47 12c0-1.105-.895-2-2-2h-1.231c-.91-4.007-4.487-7-8.769-7-4.971 0-9 4.029-9 9z" fill="#47648f"/><path d="m3 23h22v17h-22z" fill="#e3e3e3"/><path d="m25 19h-22c-.552 0-1 .448-1 1v3h24v-3c0-.552-.448-1-1-1z" fill="#425670"/><path d="m41 28h11.5c1.381 0 2.5-1.119 2.5-2.5s-1.119-2.5-2.5-2.5h-11.594c-.265-1.568-.675-3.096-1.906-4h-8c-1.488 1.092-2 3.013-2 5v9h12z" fill="#47648f"/><path d="m51 44c0-5.523-4.477-10-10-10v-1h-12v2c0 2.761 2.239 5 5 5h6c2.761 0 5 2.239 5 5v4h6z" fill="#47648f"/><path d="m5 28 2 6h7 7l2-6z" fill="#90622a"/><path d="m20 41c-3.55 0-6.729 1.55-8.926 4-1.905 2.124-3.074 4.922-3.074 8v4h4v-2c0-5.523 4.477-10 10-10s10 4.477 10 10v2h8v-4c0-6.627-5.373-12-12-12h-7z" fill="#f35142"/><path d="m22 45c-5.523 0-10 4.477-10 10v2h20v-2c0-5.523-4.477-10-10-10z" fill="#f35142"/><path d="m35.333 57v-.667c0-7.364-5.969-13.333-13.333-13.333s-13.333 5.969-13.333 13.333v.667h3.333v-2c0-5.523 4.477-10 10-10s10 4.477 10 10v2z" fill="#e34636"/><g fill="#425670"><path d="m36.5 3.135c-.489-.082-.988-.135-1.5-.135-4.971 0-9 4.029-9 9h3c0-4.458 3.245-8.15 7.5-8.865z"/><path d="m42 40h-2c2.761 0 5 2.239 5 5v4h2v-4c0-2.761-2.239-5-5-5z"/><path d="m45 49h2v-4.558c0-3.558-2.884-6.442-6.442-6.442h-6.558c-.009 0-.017 0-.026 0-1.607-.009-2.965-1.367-2.974-2.974 0-.009 0-.017 0-.026v-2-9c0-1.987.512-3.908 2-5h-2c-1.488 1.092-2 3.013-2 5v9 2c0 2.761 2.239 5 5 5h6c2.761 0 5 2.239 5 5z"/></g><path d="m22 45c-.338 0-.671.018-1 .05 5.053.502 9 4.764 9 9.95v2h2v-2c0-5.523-4.477-10-10-10z" fill="#ff7f73"/><path d="m5 28 2 6h14l-7.186-.553c-3.647-.28-6.932-2.311-8.814-5.447z" fill="#7a5324"/><path d="m5 34 2 6h14l2-6z" fill="#90622a"/><path d="m5 34 2 6h14l-7.187-.553c-3.646-.281-6.931-2.311-8.813-5.447z" fill="#7a5324"/><path d="m39 42h-36c-.552 0-1-.448-1-1 0-.552.448-1 1-1h36c.552 0 1 .448 1 1 0 .552-.448 1-1 1z" fill="#2e2e2e"/><path d="m51 49h-6v5h10c0-2.761-4-5-4-5z" fill="#bfbfbf"/><path d="m56 42v3c3.314 0 6 2.686 6 6v-3c0-3.314-2.686-6-6-6z" fill="#e34636"/><path d="m29 32h12v2h-12z" fill="#2e2e2e"/><path d="m13 34h2v3h-2z" fill="#deaf76"/><path d="m13 28h2v3h-2z" fill="#deaf76"/></svg>